<?xml version="1.0" encoding="UTF-8" standalone="no"?>
<!-- Created with Inkscape (http://www.inkscape.org/) -->

<svg
   xmlns:dc="http://purl.org/dc/elements/1.1/"
   xmlns:cc="http://creativecommons.org/ns#"
   xmlns:rdf="http://www.w3.org/1999/02/22-rdf-syntax-ns#"
   xmlns:svg="http://www.w3.org/2000/svg"
   xmlns="http://www.w3.org/2000/svg"
   xmlns:sodipodi="http://sodipodi.sourceforge.net/DTD/sodipodi-0.dtd"
   xmlns:inkscape="http://www.inkscape.org/namespaces/inkscape"
   id="svg3336"
   version="1.1"
   inkscape:version="0.91 r13725"
   xml:space="preserve"
   width="410.54938"
   height="180.19501"
   viewBox="0 0 410.54936 180.19501"
   sodipodi:docname="logo.svg"><metadata
     id="metadata3342"><rdf:RDF><cc:Work
         rdf:about=""><dc:format>image/svg+xml</dc:format><dc:type
           rdf:resource="http://purl.org/dc/dcmitype/StillImage" /><dc:title></dc:title></cc:Work></rdf:RDF></metadata><defs
     id="defs3340"><clipPath
       clipPathUnits="userSpaceOnUse"
       id="clipPath3350"><path
         d="m 0,1190.55 841.89,0 L 841.89,0 0,0 0,1190.55 Z"
         id="path3352"
         inkscape:connector-curvature="0" /></clipPath><clipPath
       clipPathUnits="userSpaceOnUse"
       id="clipPath3564"><path
         d="m 0,1190.55 841.89,0 L 841.89,0 0,0 0,1190.55 Z"
         id="path3566"
         inkscape:connector-curvature="0" /></clipPath><clipPath
       clipPathUnits="userSpaceOnUse"
       id="clipPath3634"><path
         d="m 0,1190.55 841.89,0 L 841.89,0 0,0 0,1190.55 Z"
         id="path3636"
         inkscape:connector-curvature="0" /></clipPath></defs><sodipodi:namedview
     pagecolor="#ffffff"
     bordercolor="#666666"
     borderopacity="1"
     objecttolerance="10"
     gridtolerance="10"
     guidetolerance="10"
     inkscape:pageopacity="0"
     inkscape:pageshadow="2"
     inkscape:window-width="1920"
     inkscape:window-height="1017"
     id="namedview3338"
     showgrid="false"
     fit-margin-top="0"
     fit-margin-left="0"
     fit-margin-right="0"
     fit-margin-bottom="0"
     inkscape:zoom="6.4011709"
     inkscape:cx="355.8023"
     inkscape:cy="44.928187"
     inkscape:window-x="-8"
     inkscape:window-y="-8"
     inkscape:window-maximized="1"
     inkscape:current-layer="g3344" /><g
     id="g3344"
     inkscape:groupmode="layer"
     inkscape:label="logo"
     transform="matrix(1.25,0,0,-1.25,-170.11387,938.39538)"><g
       id="g3394"
       transform="translate(179.4761,672.0371)"><path
         d="m 0,0 c -4.313,3.679 -9.118,5.52 -14.414,5.52 -5.04,0 -9.129,-1.606 -12.27,-4.817 -3.141,-3.211 -4.711,-7.406 -4.711,-12.586 0,-4.992 1.535,-9.105 4.606,-12.34 3.046,-3.187 6.891,-4.781 11.531,-4.781 4.149,0 8.016,1.113 11.602,3.34 1.125,0.703 2.15,1.441 3.076,2.215 0.926,0.773 1.893,1.594 2.9,2.461 l 0,-13.078 -0.597,-0.422 c -2.414,-1.711 -4.934,-2.942 -7.559,-3.692 -2.812,-0.82 -5.707,-1.23 -8.684,-1.23 -1.898,0 -3.844,0.164 -5.835,0.492 -7.712,1.313 -13.653,5.121 -17.825,11.426 -3.07,4.593 -4.605,9.82 -4.605,15.679 0,5.836 1.547,11.051 4.64,15.645 3.141,4.688 7.301,8.039 12.481,10.055 3.422,1.359 6.961,2.039 10.617,2.039 1.57,0 3.176,-0.129 4.817,-0.387 4.359,-0.68 8.507,-2.368 12.445,-5.062 L 2.883,10.02 2.25,-1.898 0,0 Z"
         style="fill:#a31c21;fill-opacity:1;fill-rule:nonzero;stroke:none"
         id="path3396"
         inkscape:connector-curvature="0" /></g><g
       id="g3398"
       transform="translate(179.4761,672.0371)"><path
         d="m 0,0 c -4.313,3.679 -9.118,5.52 -14.414,5.52 -5.04,0 -9.129,-1.606 -12.27,-4.817 -3.141,-3.211 -4.711,-7.406 -4.711,-12.586 0,-4.992 1.535,-9.105 4.606,-12.34 3.046,-3.187 6.891,-4.781 11.531,-4.781 4.149,0 8.016,1.113 11.602,3.34 1.125,0.703 2.15,1.441 3.076,2.215 0.926,0.773 1.893,1.594 2.9,2.461 l 0,-13.078 -0.597,-0.422 c -2.414,-1.711 -4.934,-2.942 -7.559,-3.692 -2.812,-0.82 -5.707,-1.23 -8.684,-1.23 -1.898,0 -3.844,0.164 -5.835,0.492 -7.712,1.313 -13.653,5.121 -17.825,11.426 -3.07,4.593 -4.605,9.82 -4.605,15.679 0,5.836 1.547,11.051 4.64,15.645 3.141,4.688 7.301,8.039 12.481,10.055 3.422,1.359 6.961,2.039 10.617,2.039 1.57,0 3.176,-0.129 4.817,-0.387 4.359,-0.68 8.507,-2.368 12.445,-5.062 L 2.883,10.02 2.25,-1.898 0,0 Z"
         style="fill:none;stroke:#231f20;stroke-width:1.20000005;stroke-linecap:round;stroke-linejoin:round;stroke-miterlimit:10;stroke-dasharray:none;stroke-opacity:1"
         id="path3400"
         inkscape:connector-curvature="0" /></g><g
       id="g3402"
       transform="translate(205.8262,656.4277)"><path
         d="M 0,0 9.422,0 4.711,10.723 0,0 Z m 18.879,-21.621 -5.309,11.988 -17.859,0 -5.801,-12.867 -11.742,0 26.437,56.777 26.438,-56.777 -11.777,0 -0.387,0.879 z"
         style="fill:#a31c21;fill-opacity:1;fill-rule:nonzero;stroke:none"
         id="path3404"
         inkscape:connector-curvature="0" /></g><g
       id="g3406"
       transform="translate(205.8262,656.4277)"><path
         d="M 0,0 9.422,0 4.711,10.723 0,0 Z m 18.879,-21.621 -5.309,11.988 -17.859,0 -5.801,-12.867 -11.742,0 26.437,56.777 26.438,-56.777 -11.777,0 -0.387,0.879 z"
         style="fill:none;stroke:#231f20;stroke-width:1.20000005;stroke-linecap:round;stroke-linejoin:round;stroke-miterlimit:10;stroke-dasharray:none;stroke-opacity:1"
         id="path3408"
         inkscape:connector-curvature="0" /></g><g
       id="g3410"
       transform="translate(245.9541,650.416)"><path
         d="m 0,0 c 0.633,-2.297 1.576,-4.113 2.83,-5.449 1.253,-1.336 3.217,-2.004 5.889,-2.004 1.828,0 3.357,0.492 4.588,1.476 1.23,0.985 1.845,2.484 1.845,4.5 0,2.04 -1.313,3.732 -3.937,5.081 -2.625,1.347 -4.781,2.478 -6.469,3.392 -3.187,1.664 -6.012,3.692 -8.473,6.082 -2.343,2.25 -3.515,5.25 -3.515,9 l 0,0.633 c 0.14,4.148 1.804,7.664 4.992,10.547 3.094,2.789 6.703,4.183 10.828,4.183 l 0.422,0 c 3.445,-0.07 6.346,-0.72 8.701,-1.951 2.356,-1.23 4.447,-3.334 6.276,-6.31 l -7.454,-6.61 c -0.843,1.336 -1.851,2.532 -3.023,3.586 -1.125,1.008 -2.508,1.512 -4.148,1.512 l -0.211,0 C 7.781,27.598 6.58,27.128 5.537,26.262 4.494,25.395 3.973,24.21 3.973,22.711 c 0,-1.43 0.89,-2.76 2.672,-3.99 1.78,-1.231 3.445,-2.256 4.992,-3.076 3.797,-2.04 7.23,-4.278 10.301,-6.715 3,-2.391 4.5,-5.954 4.5,-10.688 l 0,-0.211 c -0.048,-4.664 -1.706,-8.414 -4.975,-11.25 -3.27,-2.836 -7.342,-4.406 -12.217,-4.711 -0.351,-0.023 -0.715,-0.035 -1.09,-0.035 -3.234,0 -6.305,0.856 -9.211,2.567 -3.258,1.898 -5.625,4.675 -7.101,8.332 L 0,0 Z"
         style="fill:#a31c21;fill-opacity:1;fill-rule:nonzero;stroke:none"
         id="path3412"
         inkscape:connector-curvature="0" /></g><g
       id="g3414"
       transform="translate(245.9541,650.416)"><path
         d="m 0,0 c 0.633,-2.297 1.576,-4.113 2.83,-5.449 1.253,-1.336 3.217,-2.004 5.889,-2.004 1.828,0 3.357,0.492 4.588,1.476 1.23,0.985 1.845,2.484 1.845,4.5 0,2.04 -1.313,3.732 -3.937,5.081 -2.625,1.347 -4.781,2.478 -6.469,3.392 -3.187,1.664 -6.012,3.692 -8.473,6.082 -2.343,2.25 -3.515,5.25 -3.515,9 l 0,0.633 c 0.14,4.148 1.804,7.664 4.992,10.547 3.094,2.789 6.703,4.183 10.828,4.183 l 0.422,0 c 3.445,-0.07 6.346,-0.72 8.701,-1.951 2.356,-1.23 4.447,-3.334 6.276,-6.31 l -7.454,-6.61 c -0.843,1.336 -1.851,2.532 -3.023,3.586 -1.125,1.008 -2.508,1.512 -4.148,1.512 l -0.211,0 C 7.781,27.598 6.58,27.128 5.537,26.262 4.494,25.395 3.973,24.21 3.973,22.711 c 0,-1.43 0.89,-2.76 2.672,-3.99 1.78,-1.231 3.445,-2.256 4.992,-3.076 3.797,-2.04 7.23,-4.278 10.301,-6.715 3,-2.391 4.5,-5.954 4.5,-10.688 l 0,-0.211 c -0.048,-4.664 -1.706,-8.414 -4.975,-11.25 -3.27,-2.836 -7.342,-4.406 -12.217,-4.711 -0.351,-0.023 -0.715,-0.035 -1.09,-0.035 -3.234,0 -6.305,0.856 -9.211,2.567 -3.258,1.898 -5.625,4.675 -7.101,8.332 L 0,0 Z"
         style="fill:none;stroke:#231f20;stroke-width:1.20000005;stroke-linecap:round;stroke-linejoin:round;stroke-miterlimit:10;stroke-dasharray:none;stroke-opacity:1"
         id="path3416"
         inkscape:connector-curvature="0" /></g><g
       id="g3418"
       transform="translate(291.6162,690.6699)"><path
         d="m 0,0 33.082,-34.031 0,30.093 11.004,0 0,-56.707 -33.047,35.438 0,-31.535 L 0,-56.742 0,0 Z"
         style="fill:#a31c21;fill-opacity:1;fill-rule:nonzero;stroke:none"
         id="path3420"
         inkscape:connector-curvature="0" /></g><g
       id="g3422"
       transform="translate(291.6162,690.6699)"><path
         d="m 0,0 33.082,-34.031 0,30.093 11.004,0 0,-56.707 -33.047,35.438 0,-31.535 L 0,-56.742 0,0 Z"
         style="fill:none;stroke:#231f20;stroke-width:1.20000005;stroke-linecap:round;stroke-linejoin:round;stroke-miterlimit:10;stroke-dasharray:none;stroke-opacity:1"
         id="path3424"
         inkscape:connector-curvature="0" /></g><g
       id="g3426"
       transform="translate(384.584,660.2598)"><path
         d="m 0,0 c 0,2.367 -0.422,4.57 -1.266,6.609 -1.828,4.407 -4.839,7.512 -9.035,9.317 -2.179,0.914 -4.347,1.371 -6.504,1.371 -2.133,0 -4.266,-0.445 -6.398,-1.336 -0.352,-0.164 -0.85,-0.422 -1.494,-0.773 -0.645,-0.352 -1.108,-0.633 -1.389,-0.844 -0.821,-0.54 -1.664,-1.243 -2.531,-2.11 l 0,-0.035 c -0.774,-0.773 -1.477,-1.629 -2.11,-2.566 -0.586,-0.891 -1.102,-1.887 -1.546,-2.988 -0.844,-2.11 -1.266,-4.313 -1.266,-6.61 0,-0.562 0.023,-1.125 0.07,-1.687 0.258,-2.907 1.172,-5.555 2.742,-7.946 1.922,-2.93 4.43,-5.05 7.524,-6.363 2.25,-0.961 4.453,-1.441 6.609,-1.441 3.141,0 6.176,1.019 9.106,3.058 C -2.496,-10.946 0,-6.165 0,0 m 11.391,0 c 0,-3.704 -0.703,-7.254 -2.11,-10.652 -0.68,-1.595 -1.547,-3.164 -2.601,-4.711 -3.212,-4.664 -7.453,-8.063 -12.727,-10.196 -3.469,-1.406 -7.008,-2.109 -10.617,-2.109 -1.852,0 -3.727,0.188 -5.625,0.563 -3.75,0.726 -7.125,2.097 -10.125,4.113 -1.406,0.89 -2.825,2.027 -4.254,3.41 -2.695,2.602 -4.734,5.566 -6.117,8.894 -1.43,3.375 -2.145,6.891 -2.145,10.547 0,0.937 0.047,1.875 0.141,2.813 0.445,4.663 1.969,8.894 4.57,12.691 2.086,3.047 4.699,5.602 7.84,7.664 l 0,0.036 c 4.641,3.023 9.856,4.535 15.645,4.535 5.671,0 10.863,-1.512 15.574,-4.535 C 1.957,21 4.57,18.422 6.68,15.328 9.82,10.688 11.391,5.578 11.391,0"
         style="fill:#a31c21;fill-opacity:1;fill-rule:nonzero;stroke:none"
         id="path3428"
         inkscape:connector-curvature="0" /></g><g
       id="g3430"
       transform="translate(384.584,660.2598)"><path
         d="m 0,0 c 0,2.367 -0.422,4.57 -1.266,6.609 -1.828,4.407 -4.839,7.512 -9.035,9.317 -2.179,0.914 -4.347,1.371 -6.504,1.371 -2.133,0 -4.266,-0.445 -6.398,-1.336 -0.352,-0.164 -0.85,-0.422 -1.494,-0.773 -0.645,-0.352 -1.108,-0.633 -1.389,-0.844 -0.821,-0.54 -1.664,-1.243 -2.531,-2.11 l 0,-0.035 c -0.774,-0.773 -1.477,-1.629 -2.11,-2.566 -0.586,-0.891 -1.102,-1.887 -1.546,-2.988 -0.844,-2.11 -1.266,-4.313 -1.266,-6.61 0,-0.562 0.023,-1.125 0.07,-1.687 0.258,-2.907 1.172,-5.555 2.742,-7.946 1.922,-2.93 4.43,-5.05 7.524,-6.363 2.25,-0.961 4.453,-1.441 6.609,-1.441 3.141,0 6.176,1.019 9.106,3.058 C -2.496,-10.946 0,-6.165 0,0 Z m 11.391,0 c 0,-3.704 -0.703,-7.254 -2.11,-10.652 -0.68,-1.595 -1.547,-3.164 -2.601,-4.711 -3.212,-4.664 -7.453,-8.063 -12.727,-10.196 -3.469,-1.406 -7.008,-2.109 -10.617,-2.109 -1.852,0 -3.727,0.188 -5.625,0.563 -3.75,0.726 -7.125,2.097 -10.125,4.113 -1.406,0.89 -2.825,2.027 -4.254,3.41 -2.695,2.602 -4.734,5.566 -6.117,8.894 -1.43,3.375 -2.145,6.891 -2.145,10.547 0,0.937 0.047,1.875 0.141,2.813 0.445,4.663 1.969,8.894 4.57,12.691 2.086,3.047 4.699,5.602 7.84,7.664 l 0,0.036 c 4.641,3.023 9.856,4.535 15.645,4.535 5.671,0 10.863,-1.512 15.574,-4.535 C 1.957,21 4.57,18.422 6.68,15.328 9.82,10.688 11.391,5.578 11.391,0 Z"
         style="fill:none;stroke:#231f20;stroke-width:1.20000005;stroke-linecap:round;stroke-linejoin:round;stroke-miterlimit:10;stroke-dasharray:none;stroke-opacity:1"
         id="path3432"
         inkscape:connector-curvature="0" /></g><g
       id="g3434"
       transform="translate(165.874,694.2578)"><path
         d="m 0,0 c -1.857,0 -3.788,0.163 -5.738,0.484 -7.503,1.277 -13.366,5.034 -17.422,11.165 -2.99,4.473 -4.506,9.636 -4.506,15.349 0,5.687 1.527,10.837 4.539,15.309 3.057,4.562 7.161,7.869 12.2,9.831 3.34,1.326 6.838,1.998 10.4,1.998 1.531,0 3.121,-0.128 4.723,-0.38 4.25,-0.663 8.355,-2.333 12.2,-4.964 l 0.389,-0.267 -0.551,-10.377 -1.328,1.121 c -4.402,3.755 -9.382,5.661 -14.801,5.661 -5.183,0 -9.455,-1.681 -12.698,-4.997 -3.24,-3.312 -4.882,-7.688 -4.882,-13.006 0,-5.128 1.605,-9.419 4.77,-12.753 3.151,-3.297 7.177,-4.968 11.967,-4.968 4.243,0 8.253,1.154 11.918,3.43 1.142,0.714 2.2,1.476 3.144,2.264 0.62,0.518 1.259,1.058 1.916,1.618 l 0,-11.463 -0.344,-0.243 C 13.548,3.148 11.066,1.936 8.519,1.208 5.771,0.406 2.906,0 0,0"
         style="fill:#100f0d;fill-opacity:1;fill-rule:nonzero;stroke:none"
         id="path3436"
         inkscape:connector-curvature="0" /></g><g
       id="g3438"
       transform="translate(165.3467,748.9937)"><path
         d="m 0,0 c -3.656,0 -7.195,-0.68 -10.617,-2.039 -5.18,-2.016 -9.34,-5.367 -12.481,-10.055 -3.093,-4.594 -4.64,-9.808 -4.64,-15.644 0,-5.86 1.534,-11.087 4.605,-15.68 4.172,-6.305 10.113,-10.113 17.824,-11.426 1.992,-0.328 3.938,-0.492 5.836,-0.492 2.976,0 5.871,0.41 8.684,1.231 2.624,0.75 5.144,1.98 7.559,3.691 l 0.597,0.422 0,13.078 c -1.008,-0.867 -1.974,-1.688 -2.9,-2.461 -0.926,-0.773 -1.951,-1.512 -3.076,-2.215 -3.586,-2.227 -7.453,-3.34 -11.602,-3.34 -4.641,0 -8.485,1.594 -11.531,4.782 -3.071,3.234 -4.606,7.347 -4.606,12.339 0,5.18 1.57,9.375 4.711,12.586 3.141,3.211 7.23,4.817 12.27,4.817 5.296,0 10.101,-1.841 14.414,-5.52 l 2.25,-1.898 0.633,11.918 -0.668,0.457 C 13.324,-2.754 9.176,-1.067 4.816,-0.387 3.176,-0.129 1.57,0 0,0 m 0,-1.2 c 1.501,0 3.059,-0.125 4.631,-0.372 4.161,-0.65 8.182,-2.287 11.953,-4.867 l 0.112,-0.077 -0.469,-8.835 -0.401,0.338 c -4.516,3.853 -9.628,5.807 -15.193,5.807 -5.351,0 -9.767,-1.742 -13.128,-5.178 -3.353,-3.428 -5.053,-7.945 -5.053,-13.425 0,-5.287 1.661,-9.716 4.938,-13.169 3.268,-3.418 7.439,-5.152 12.399,-5.152 4.357,0 8.473,1.185 12.238,3.523 1.164,0.727 2.244,1.505 3.209,2.311 0.306,0.255 0.617,0.516 0.931,0.782 l 0,-9.857 -0.091,-0.064 c -2.292,-1.624 -4.712,-2.807 -7.201,-3.519 -2.69,-0.784 -5.499,-1.182 -8.348,-1.182 -1.824,0 -3.722,0.16 -5.634,0.475 -7.336,1.249 -13.064,4.918 -17.028,10.91 -2.922,4.37 -4.403,9.421 -4.403,15.013 0,5.565 1.492,10.603 4.437,14.976 2.987,4.457 6.997,7.689 11.927,9.608 C -6.909,-1.857 -3.486,-1.2 0,-1.2"
         style="fill:#231f20;fill-opacity:1;fill-rule:nonzero;stroke:none"
         id="path3440"
         inkscape:connector-curvature="0" /></g><g
       id="g3442"
       transform="translate(216.0581,695.5586)"><path
         d="m 0,0 0,17.47 c 0,1.996 -0.133,3.736 -0.396,5.171 -0.255,1.273 -0.573,2.172 -0.974,2.761 -0.464,0.583 -1.054,1.011 -1.781,1.307 -0.83,0.312 -1.859,0.467 -3.074,0.467 -0.836,0 -1.611,-0.076 -2.306,-0.225 -0.606,-0.151 -1.245,-0.36 -1.922,-0.625 -0.65,-0.323 -1.185,-0.668 -1.641,-1.047 -0.5,-0.425 -0.897,-0.87 -1.184,-1.325 l -0.036,-0.042 c -0.247,-0.329 -0.453,-0.725 -0.614,-1.18 -0.143,-0.301 -0.259,-0.708 -0.339,-1.205 l -0.069,-0.242 c -0.126,-0.604 -0.199,-1.364 -0.223,-2.323 -0.047,-0.568 -0.071,-1.688 -0.071,-3.39 l 0,-15.572 -9.136,0 0,54.558 8.679,0 0,-24.05 1.008,0.937 c 0.937,0.869 1.931,1.57 2.954,2.082 1.074,0.537 2.268,0.946 3.547,1.216 1.466,0.27 2.86,0.408 4.13,0.408 1.246,0 2.427,-0.103 3.511,-0.306 1.052,-0.201 2.063,-0.508 3.003,-0.91 l 0.113,-0.049 0.015,0 C 4.124,33.412 4.917,32.903 5.555,32.373 6.207,31.829 6.829,31.105 7.405,30.221 7.688,29.763 7.971,29.22 8.238,28.617 8.449,28.065 8.629,27.456 8.763,26.836 8.896,26.191 8.999,25.32 9.067,24.252 9.112,22.825 9.136,21.555 9.136,20.458 L 9.136,0 0,0 Z"
         style="fill:#100f0d;fill-opacity:1;fill-rule:nonzero;stroke:none"
         id="path3444"
         inkscape:connector-curvature="0" /></g><g
       id="g3446"
       transform="translate(201.5713,750.7163)"><path
         d="m 0,0 -9.879,0 0,-55.758 10.336,0 0,16.172 c 0,1.664 0.023,2.789 0.07,3.375 0.023,0.914 0.094,1.652 0.211,2.215 l 0.035,0 c 0.071,0.562 0.188,1.019 0.352,1.371 0.141,0.398 0.316,0.738 0.527,1.02 l 0.036,0.035 c 0.257,0.422 0.62,0.831 1.089,1.23 0.422,0.352 0.914,0.668 1.477,0.949 0.656,0.258 1.266,0.457 1.828,0.598 0.656,0.141 1.383,0.211 2.18,0.211 1.148,0 2.097,-0.141 2.847,-0.422 0.633,-0.258 1.137,-0.621 1.512,-1.09 0.352,-0.515 0.645,-1.359 0.879,-2.531 0.258,-1.406 0.387,-3.094 0.387,-5.063 l 0,-18.07 10.336,0 0,21.059 c 0,1.101 -0.024,2.378 -0.071,3.832 -0.07,1.101 -0.175,1.992 -0.316,2.672 -0.141,0.655 -0.329,1.288 -0.563,1.898 -0.281,0.633 -0.574,1.195 -0.878,1.688 -0.61,0.937 -1.266,1.699 -1.969,2.285 -0.703,0.585 -1.571,1.136 -2.602,1.652 l -0.035,0 c -0.984,0.422 -2.027,0.738 -3.129,0.949 -1.125,0.211 -2.332,0.317 -3.621,0.317 -1.313,0 -2.73,-0.141 -4.254,-0.422 C 5.449,-20.109 4.219,-20.531 3.094,-21.094 2.016,-21.633 0.984,-22.359 0,-23.273 L 0,0 Z m -1.2,-1.2 0,-22.073 0,-2.752 2.016,1.872 c 0.896,0.831 1.843,1.5 2.814,1.986 1.028,0.514 2.173,0.906 3.373,1.159 1.445,0.266 2.803,0.402 4.036,0.402 1.209,0 2.353,-0.1 3.396,-0.295 1.011,-0.194 1.981,-0.488 2.881,-0.874 l 0.112,-0.041 c 0.882,-0.451 1.631,-0.932 2.23,-1.43 0.606,-0.505 1.188,-1.184 1.716,-1.994 0.272,-0.44 0.537,-0.949 0.79,-1.515 0.207,-0.544 0.375,-1.113 0.497,-1.683 0.129,-0.623 0.227,-1.466 0.292,-2.468 0.046,-1.434 0.069,-2.71 0.069,-3.793 l 0,-19.859 -7.935,0 0,16.87 c 0,2.032 -0.137,3.809 -0.41,5.298 -0.269,1.344 -0.617,2.316 -1.064,2.972 l -0.026,0.038 -0.029,0.036 c -0.502,0.627 -1.173,1.115 -2.028,1.464 -0.894,0.335 -1.963,0.498 -3.268,0.498 -0.878,0 -1.696,-0.08 -2.471,-0.247 -0.611,-0.153 -1.276,-0.37 -1.976,-0.645 l -0.05,-0.019 -0.048,-0.024 C 3.075,-28.639 2.5,-29.009 2,-29.426 1.482,-29.866 1.061,-30.333 0.745,-30.815 l -0.001,-0.002 -0.052,-0.068 c -0.273,-0.365 -0.502,-0.798 -0.68,-1.288 -0.085,-0.191 -0.16,-0.398 -0.223,-0.623 l -0.026,0 -0.2,-0.954 c -0.132,-0.633 -0.209,-1.417 -0.234,-2.398 -0.049,-0.625 -0.072,-1.751 -0.072,-3.438 l 0,-14.972 -7.936,0 0,53.358 7.479,0"
         style="fill:#231f20;fill-opacity:1;fill-rule:nonzero;stroke:none"
         id="path3448"
         inkscape:connector-curvature="0" /></g><g
       id="g3450"
       transform="translate(251.3662,694.2578)"><path
         d="m 0,0 c -2.804,0 -5.306,0.368 -7.436,1.093 -2.143,0.692 -3.885,1.803 -5.189,3.305 -1.322,1.434 -2.316,3.384 -2.967,5.81 -0.64,2.286 -0.964,5.07 -0.964,8.282 l 0,16.837 9.1,0 0,-19.052 c 0,-1.478 0.15,-2.762 0.444,-3.817 0.258,-0.956 0.686,-1.753 1.27,-2.363 0.501,-0.583 1.25,-1.024 2.207,-1.289 0.862,-0.313 2.042,-0.479 3.465,-0.479 1.397,0 2.576,0.165 3.503,0.491 0.89,0.253 1.634,0.689 2.179,1.287 0.55,0.603 0.972,1.391 1.256,2.342 0.298,1.066 0.447,2.35 0.447,3.828 l 0,19.052 9.101,0 0,-16.837 c 0,-3.187 -0.324,-5.959 -0.962,-8.241 C 14.8,7.864 13.805,5.924 12.493,4.479 11.178,2.963 9.442,1.827 7.327,1.092 5.222,0.367 2.756,0 0,0"
         style="fill:#100f0d;fill-opacity:1;fill-rule:nonzero;stroke:none"
         id="path3452"
         inkscape:connector-curvature="0" /></g><g
       id="g3454"
       transform="translate(268.3818,730.1851)"><path
         d="m 0,0 -10.301,0 0,-19.652 c 0,-1.43 -0.14,-2.649 -0.422,-3.657 -0.258,-0.867 -0.632,-1.57 -1.125,-2.109 -0.469,-0.516 -1.113,-0.891 -1.933,-1.125 -0.867,-0.305 -1.969,-0.457 -3.305,-0.457 -1.359,0 -2.461,0.152 -3.305,0.457 -0.843,0.234 -1.488,0.609 -1.933,1.125 -0.516,0.539 -0.891,1.242 -1.125,2.109 -0.281,1.008 -0.422,2.227 -0.422,3.657 l 0,19.652 -10.301,0 0,-17.438 c 0,-3.281 0.328,-6.094 0.984,-8.437 0.68,-2.531 1.711,-4.547 3.094,-6.047 1.383,-1.594 3.199,-2.754 5.449,-3.48 2.203,-0.75 4.747,-1.125 7.629,-1.125 2.836,0 5.344,0.375 7.524,1.125 2.226,0.773 4.031,1.956 5.414,3.55 1.383,1.524 2.413,3.528 3.094,6.012 0.655,2.343 0.984,5.145 0.984,8.402 L 0,0 Z m -1.2,-1.2 0,-16.238 c 0,-3.131 -0.316,-5.85 -0.942,-8.085 -0.627,-2.29 -1.577,-4.147 -2.842,-5.542 -1.238,-1.426 -2.887,-2.504 -4.899,-3.203 -2.043,-0.703 -4.443,-1.059 -7.133,-1.059 -2.737,0 -5.174,0.357 -7.26,1.067 -2.028,0.654 -3.681,1.705 -4.936,3.152 -1.243,1.347 -2.19,3.212 -2.82,5.557 -0.624,2.227 -0.94,4.956 -0.94,8.113 l 0,16.238 7.901,0 0,-18.452 c 0,-1.533 0.157,-2.871 0.463,-3.969 0.283,-1.047 0.752,-1.923 1.396,-2.605 0.591,-0.674 1.418,-1.166 2.457,-1.461 0.977,-0.345 2.178,-0.513 3.669,-0.513 1.469,0 2.67,0.168 3.669,0.513 1.017,0.296 1.843,0.787 2.456,1.46 0.612,0.67 1.079,1.537 1.394,2.596 0.309,1.108 0.466,2.446 0.466,3.979 l 0,18.452 7.901,0"
         style="fill:#231f20;fill-opacity:1;fill-rule:nonzero;stroke:none"
         id="path3456"
         inkscape:connector-curvature="0" /></g><g
       id="g3458"
       transform="translate(277.3984,634.0874)"><path
         d="m 0,0 0,95.568 9.101,0 0,-3.498 1.026,1.04 c 1.716,1.737 3.872,2.719 6.406,2.917 0.287,0.021 0.577,0.033 0.867,0.033 2.04,0 4.073,-0.525 6.05,-1.561 l -3.42,-7.785 c -0.685,0.482 -1.283,0.872 -1.782,1.165 -0.722,0.422 -1.735,0.627 -3.098,0.627 -2.129,0 -3.655,-0.84 -4.538,-2.498 C 9.97,84.823 9.55,83.274 9.367,81.408 9.19,79.604 9.101,77.958 9.101,76.516 L 9.101,0 0,0 Z"
         style="fill:#100f0d;fill-opacity:1;fill-rule:nonzero;stroke:none"
         id="path3460"
         inkscape:connector-curvature="0" /></g><g
       id="g3462"
       transform="translate(294.7983,730.7476)"><path
         d="m 0,0 c -0.305,0 -0.61,-0.012 -0.914,-0.035 -2.695,-0.211 -4.957,-1.243 -6.785,-3.094 l 0,2.637 -10.301,0 0,-96.768 10.301,0 0,77.115 c 0,1.43 0.088,3.041 0.263,4.834 0.176,1.793 0.568,3.252 1.178,4.377 0.774,1.454 2.11,2.18 4.008,2.18 1.242,0 2.174,-0.182 2.795,-0.545 0.621,-0.364 1.4,-0.885 2.338,-1.564 L 6.82,-1.898 C 4.593,-0.633 2.32,0 0,0 m 0,-1.2 c 1.771,0 3.54,-0.417 5.271,-1.242 L 2.373,-9.04 c -0.453,0.306 -0.862,0.566 -1.222,0.777 -0.816,0.477 -1.928,0.709 -3.401,0.709 -2.949,0 -4.383,-1.531 -5.063,-2.808 -0.683,-1.26 -1.126,-2.886 -1.317,-4.831 -0.179,-1.824 -0.269,-3.49 -0.269,-4.952 l 0,-75.915 -7.901,0 0,94.368 7.901,0 0,-1.437 0,-2.923 2.054,2.08 c 1.634,1.655 3.605,2.551 6.021,2.74 C -0.544,-1.21 -0.268,-1.2 0,-1.2"
         style="fill:#231f20;fill-opacity:1;fill-rule:nonzero;stroke:none"
         id="path3464"
         inkscape:connector-curvature="0" /></g><g
       id="g3466"
       transform="translate(323.8159,694.2578)"><path
         d="m 0,0 c -2.585,0 -5.022,0.424 -7.241,1.262 -2.16,0.787 -4.094,2.063 -5.756,3.792 -1.675,1.652 -2.953,3.626 -3.809,5.879 -0.839,2.129 -1.262,4.574 -1.262,7.275 0,2.657 0.436,5.14 1.296,7.379 0.853,2.131 2.179,4.097 3.939,5.835 1.71,1.688 3.73,2.954 6.003,3.765 2.207,0.841 4.75,1.265 7.568,1.265 0.928,0 1.766,-0.046 2.492,-0.136 1.052,-0.137 1.838,-0.264 2.333,-0.376 0.713,-0.179 1.449,-0.409 2.172,-0.68 0.597,-0.244 1.281,-0.557 2.016,-0.924 l 0.407,-0.233 0,-10.518 c -0.299,0.324 -0.597,0.613 -0.892,0.864 -0.632,0.536 -1.409,1.132 -2.309,1.772 -0.614,0.442 -1.265,0.817 -1.932,1.114 -0.667,0.296 -1.403,0.534 -2.19,0.706 -0.749,0.149 -1.545,0.225 -2.378,0.225 -1.383,0 -2.653,-0.228 -3.773,-0.676 -1.085,-0.429 -2.057,-1.093 -2.886,-1.974 l -0.954,-1.012 0.174,0 c -0.467,-0.67 -0.827,-1.382 -1.076,-2.127 -0.416,-1.225 -0.628,-2.591 -0.628,-4.058 0,-1.559 0.211,-2.983 0.628,-4.232 0.377,-1.182 1.018,-2.233 1.903,-3.118 0.766,-0.841 1.753,-1.508 2.913,-1.962 1.175,-0.426 2.533,-0.639 4.051,-0.639 0.832,0 1.629,0.075 2.367,0.222 0.756,0.151 1.46,0.395 2.093,0.725 l 0.082,0.042 0.066,0.065 c 0.062,0.063 0.226,0.196 0.613,0.37 0.417,0.188 0.77,0.411 1.051,0.664 0.811,0.671 1.557,1.339 2.199,1.968 0.291,0.287 0.585,0.602 0.878,0.945 l 0,-10.803 L 9.722,2.417 C 8.909,1.943 8.176,1.593 7.539,1.374 6.794,1.095 5.986,0.841 5.121,0.613 4.389,0.436 3.548,0.286 2.632,0.171 1.68,0.058 0.793,0 0,0"
         style="fill:#100f0d;fill-opacity:1;fill-rule:nonzero;stroke:none"
         id="path3468"
         inkscape:connector-curvature="0" /></g><g
       id="g3470"
       transform="translate(324.5542,731.3101)"><path
         d="m 0,0 c -2.906,0 -5.497,-0.434 -7.77,-1.301 -2.367,-0.844 -4.441,-2.144 -6.222,-3.902 -1.828,-1.805 -3.188,-3.82 -4.078,-6.047 -0.891,-2.32 -1.336,-4.852 -1.336,-7.594 0,-2.789 0.433,-5.285 1.301,-7.488 0.89,-2.344 2.202,-4.372 3.937,-6.082 1.734,-1.805 3.727,-3.117 5.977,-3.938 2.296,-0.866 4.781,-1.3 7.453,-1.3 0.82,0 1.722,0.058 2.707,0.175 0.937,0.118 1.793,0.27 2.566,0.457 0.891,0.235 1.711,0.493 2.461,0.774 0.68,0.234 1.442,0.598 2.285,1.09 l 0.739,0.422 0,12.902 C 9.387,-22.723 8.754,-23.479 8.121,-24.1 7.488,-24.721 6.762,-25.371 5.941,-26.051 5.707,-26.262 5.408,-26.45 5.045,-26.613 4.681,-26.777 4.417,-26.942 4.254,-27.105 3.668,-27.41 3.023,-27.633 2.32,-27.773 c -0.703,-0.141 -1.453,-0.211 -2.25,-0.211 -1.453,0 -2.73,0.198 -3.832,0.597 -1.078,0.422 -1.981,1.032 -2.707,1.828 -0.821,0.821 -1.406,1.781 -1.758,2.883 -0.398,1.196 -0.597,2.543 -0.597,4.043 0,1.406 0.199,2.695 0.597,3.867 0.352,1.055 0.937,2.027 1.758,2.918 l -0.035,0 c 0.774,0.821 1.664,1.43 2.672,1.828 1.055,0.422 2.238,0.633 3.551,0.633 0.796,0 1.547,-0.07 2.25,-0.211 0.75,-0.164 1.441,-0.386 2.074,-0.668 0.633,-0.281 1.242,-0.632 1.828,-1.054 0.891,-0.633 1.647,-1.213 2.268,-1.741 0.62,-0.527 1.248,-1.225 1.881,-2.091 l 0,12.55 -0.739,0.422 c -0.75,0.375 -1.441,0.691 -2.074,0.95 -0.75,0.281 -1.5,0.515 -2.25,0.703 C 4.441,-0.41 3.644,-0.281 2.566,-0.141 1.816,-0.047 0.961,0 0,0 m 0,-1.2 c 0.903,0 1.716,-0.044 2.411,-0.131 1.037,-0.135 1.804,-0.258 2.255,-0.36 0.705,-0.177 1.418,-0.4 2.087,-0.65 0.592,-0.242 1.252,-0.544 1.962,-0.898 l 0.104,-0.059 0,-8.767 c -0.626,0.526 -1.383,1.105 -2.247,1.718 -0.65,0.469 -1.337,0.865 -2.042,1.178 -0.703,0.313 -1.479,0.563 -2.326,0.748 -0.777,0.155 -1.613,0.234 -2.485,0.234 -1.46,0 -2.804,-0.242 -3.993,-0.717 -1.168,-0.462 -2.212,-1.176 -3.103,-2.12 l -1.873,-2.024 0.46,0 c -0.23,-0.431 -0.421,-0.875 -0.573,-1.331 -0.439,-1.29 -0.661,-2.722 -0.661,-4.254 0,-1.624 0.222,-3.112 0.654,-4.408 0.406,-1.272 1.09,-2.398 2.033,-3.347 0.845,-0.92 1.9,-1.632 3.167,-2.127 1.226,-0.444 2.653,-0.67 4.24,-0.67 0.872,0 1.708,0.08 2.486,0.235 0.81,0.162 1.568,0.425 2.252,0.78 l 0.168,0.093 0.126,0.123 c 0.004,0.004 0.101,0.096 0.436,0.246 0.473,0.214 0.879,0.471 1.169,0.733 0.782,0.648 1.492,1.28 2.112,1.88 l 0,-8.943 -0.142,-0.082 c -0.774,-0.451 -1.471,-0.785 -2.102,-1.003 -0.71,-0.266 -1.499,-0.513 -2.323,-0.731 -0.721,-0.174 -1.54,-0.32 -2.425,-0.431 -0.933,-0.111 -1.796,-0.167 -2.565,-0.167 -2.513,0 -4.878,0.411 -7.042,1.228 -2.067,0.753 -3.925,1.978 -5.546,3.664 -1.602,1.58 -2.832,3.482 -3.663,5.667 -0.808,2.052 -1.217,4.424 -1.217,7.049 0,2.583 0.422,4.993 1.25,7.148 0.824,2.062 2.105,3.959 3.807,5.639 1.647,1.625 3.592,2.846 5.807,3.635 C -5.215,-1.611 -2.745,-1.2 0,-1.2"
         style="fill:#231f20;fill-opacity:1;fill-rule:nonzero;stroke:none"
         id="path3472"
         inkscape:connector-curvature="0" /></g><g
       id="g3474"
       transform="translate(367.3555,695.5586)"><path
         d="m 0,0 0,17.47 c 0,1.996 -0.133,3.736 -0.396,5.171 -0.255,1.273 -0.573,2.172 -0.974,2.761 -0.464,0.583 -1.054,1.011 -1.781,1.307 -0.83,0.312 -1.859,0.467 -3.074,0.467 -0.836,0 -1.611,-0.076 -2.306,-0.225 -0.606,-0.151 -1.245,-0.36 -1.922,-0.625 -0.65,-0.323 -1.185,-0.668 -1.641,-1.047 -0.5,-0.425 -0.897,-0.87 -1.184,-1.325 l -0.036,-0.042 c -0.247,-0.329 -0.453,-0.725 -0.614,-1.18 -0.143,-0.301 -0.259,-0.708 -0.339,-1.205 l -0.069,-0.242 c -0.126,-0.604 -0.199,-1.364 -0.223,-2.323 -0.047,-0.568 -0.071,-1.688 -0.071,-3.39 l 0,-15.572 -9.136,0 0,54.558 8.679,0 0,-24.05 1.008,0.937 c 0.937,0.869 1.931,1.57 2.954,2.082 1.074,0.537 2.268,0.946 3.547,1.216 1.466,0.27 2.86,0.408 4.13,0.408 1.246,0 2.427,-0.103 3.511,-0.306 1.052,-0.201 2.063,-0.508 3.003,-0.91 l 0.113,-0.049 0.015,0 C 4.124,33.412 4.917,32.903 5.555,32.373 6.207,31.829 6.829,31.105 7.405,30.221 7.688,29.763 7.971,29.22 8.238,28.617 8.449,28.065 8.629,27.456 8.763,26.836 8.896,26.191 8.999,25.32 9.067,24.252 9.112,22.825 9.136,21.555 9.136,20.458 L 9.136,0 0,0 Z"
         style="fill:#100f0d;fill-opacity:1;fill-rule:nonzero;stroke:none"
         id="path3476"
         inkscape:connector-curvature="0" /></g><g
       id="g3478"
       transform="translate(352.8687,750.7163)"><path
         d="m 0,0 -9.879,0 0,-55.758 10.336,0 0,16.172 c 0,1.664 0.023,2.789 0.07,3.375 0.023,0.914 0.094,1.652 0.211,2.215 l 0.035,0 c 0.071,0.562 0.188,1.019 0.352,1.371 0.141,0.398 0.316,0.738 0.527,1.02 l 0.036,0.035 c 0.257,0.422 0.62,0.831 1.089,1.23 0.422,0.352 0.914,0.668 1.477,0.949 0.656,0.258 1.266,0.457 1.828,0.598 0.656,0.141 1.383,0.211 2.18,0.211 1.148,0 2.097,-0.141 2.847,-0.422 0.633,-0.258 1.137,-0.621 1.512,-1.09 0.352,-0.515 0.645,-1.359 0.879,-2.531 0.258,-1.406 0.387,-3.094 0.387,-5.063 l 0,-18.07 10.336,0 0,21.059 c 0,1.101 -0.024,2.378 -0.071,3.832 -0.07,1.101 -0.175,1.992 -0.316,2.672 -0.141,0.655 -0.329,1.288 -0.563,1.898 -0.281,0.633 -0.574,1.195 -0.878,1.688 -0.61,0.937 -1.266,1.699 -1.969,2.285 -0.703,0.585 -1.571,1.136 -2.602,1.652 l -0.035,0 c -0.984,0.422 -2.027,0.738 -3.129,0.949 -1.125,0.211 -2.332,0.317 -3.621,0.317 -1.313,0 -2.73,-0.141 -4.254,-0.422 C 5.449,-20.109 4.219,-20.531 3.094,-21.094 2.016,-21.633 0.984,-22.359 0,-23.273 L 0,0 Z m -1.2,-1.2 0,-22.073 0,-2.752 2.016,1.872 c 0.895,0.831 1.843,1.5 2.814,1.986 1.029,0.514 2.173,0.906 3.373,1.159 1.445,0.266 2.803,0.402 4.036,0.402 1.209,0 2.353,-0.1 3.396,-0.295 1.011,-0.194 1.981,-0.488 2.881,-0.874 l 0.112,-0.041 c 0.882,-0.451 1.631,-0.932 2.23,-1.43 0.606,-0.505 1.188,-1.184 1.716,-1.994 0.271,-0.44 0.537,-0.949 0.79,-1.515 0.207,-0.544 0.375,-1.113 0.497,-1.683 0.129,-0.623 0.227,-1.466 0.292,-2.468 0.046,-1.434 0.069,-2.71 0.069,-3.793 l 0,-19.859 -7.935,0 0,16.87 c 0,2.032 -0.137,3.809 -0.41,5.298 -0.269,1.344 -0.617,2.316 -1.064,2.972 l -0.026,0.038 -0.029,0.036 c -0.502,0.627 -1.173,1.115 -2.028,1.464 -0.894,0.335 -1.963,0.498 -3.268,0.498 -0.878,0 -1.696,-0.08 -2.471,-0.247 -0.611,-0.153 -1.276,-0.37 -1.976,-0.645 l -0.05,-0.019 -0.048,-0.024 C 3.075,-28.639 2.5,-29.009 2,-29.426 1.482,-29.866 1.061,-30.333 0.745,-30.815 l -0.001,-0.002 -0.052,-0.068 c -0.273,-0.365 -0.502,-0.798 -0.68,-1.288 -0.085,-0.191 -0.16,-0.398 -0.223,-0.623 l -0.026,0 -0.199,-0.954 c -0.133,-0.633 -0.21,-1.417 -0.235,-2.398 -0.049,-0.625 -0.072,-1.751 -0.072,-3.438 l 0,-14.972 -7.936,0 0,53.358 7.479,0"
         style="fill:#231f20;fill-opacity:1;fill-rule:nonzero;stroke:none"
         id="path3480"
         inkscape:connector-curvature="0" /></g><g
       id="g3482"
       transform="translate(391.6245,737.1484)"><path
         d="m 0,0 c -0.692,0 -1.408,0.15 -2.126,0.447 -0.689,0.292 -1.285,0.696 -1.765,1.196 -0.519,0.498 -0.922,1.094 -1.217,1.788 -0.272,0.629 -0.409,1.34 -0.409,2.121 0,0.737 0.138,1.439 0.41,2.089 0.252,0.649 0.659,1.221 1.216,1.717 0.537,0.555 1.13,0.957 1.796,1.228 0.601,0.278 1.297,0.413 2.095,0.413 0.744,0 1.465,-0.129 2.145,-0.384 C 2.733,10.372 3.333,9.963 3.908,9.409 4.423,8.872 4.82,8.284 5.071,7.678 5.318,7.018 5.447,6.296 5.447,5.552 5.447,3.967 4.939,2.678 3.896,1.613 3.335,1.095 2.718,0.683 2.082,0.408 1.401,0.14 0.694,0 0,0 m -4.533,-7.563 9.101,0 0,-34.026 -9.101,0 0,34.026 z"
         style="fill:#100f0d;fill-opacity:1;fill-rule:nonzero;stroke:none"
         id="path3484"
         inkscape:connector-curvature="0" /></g><path
       d="m 396.792,730.185 -10.301,0 0,-35.227 10.301,0 0,35.227 z m -5.167,18.563 c -0.892,0 -1.665,-0.153 -2.321,-0.457 -0.75,-0.305 -1.406,-0.751 -1.969,-1.336 -0.632,-0.563 -1.089,-1.208 -1.371,-1.934 -0.304,-0.727 -0.457,-1.5 -0.457,-2.32 0,-0.868 0.153,-1.653 0.457,-2.356 0.328,-0.773 0.774,-1.429 1.336,-1.969 0.539,-0.562 1.196,-1.007 1.969,-1.335 0.796,-0.329 1.582,-0.493 2.356,-0.493 0.773,0 1.546,0.153 2.32,0.457 0.703,0.305 1.371,0.75 2.004,1.336 1.148,1.172 1.722,2.625 1.722,4.36 0,0.82 -0.14,1.605 -0.421,2.355 -0.282,0.68 -0.716,1.324 -1.301,1.934 -0.633,0.609 -1.289,1.054 -1.969,1.336 -0.751,0.281 -1.535,0.422 -2.355,0.422 m 3.967,-52.589 -7.9,0 0,32.826 7.9,0 0,-32.826 z m -3.967,51.388 c 0.671,0 1.322,-0.116 1.896,-0.33 0.538,-0.222 1.074,-0.59 1.562,-1.058 0.48,-0.5 0.836,-1.026 1.043,-1.524 0.229,-0.612 0.345,-1.262 0.345,-1.934 0,-1.41 -0.445,-2.555 -1.359,-3.499 -0.525,-0.482 -1.077,-0.85 -1.607,-1.08 -0.629,-0.248 -1.262,-0.373 -1.88,-0.373 -0.614,0 -1.252,0.134 -1.887,0.396 -0.619,0.263 -1.148,0.62 -1.571,1.062 l -0.018,0.018 -0.019,0.018 c -0.441,0.423 -0.798,0.952 -1.065,1.579 -0.237,0.549 -0.357,1.18 -0.357,1.879 0,0.665 0.118,1.273 0.375,1.886 0.214,0.552 0.557,1.033 1.05,1.471 l 0.035,0.031 0.033,0.034 c 0.449,0.468 0.958,0.814 1.555,1.056 l 0.027,0.01 0.026,0.013 c 0.495,0.229 1.105,0.345 1.816,0.345"
       style="fill:#231f20;fill-opacity:1;fill-rule:nonzero;stroke:none"
       id="path3486"
       inkscape:connector-curvature="0" /><path
       d="m 406.688,750.116 9.136,0 0,-54.558 -9.136,0 0,54.558 z"
       style="fill:#100f0d;fill-opacity:1;fill-rule:nonzero;stroke:none"
       id="path3488"
       inkscape:connector-curvature="0" /><path
       d="m 416.424,750.716 -10.336,0 0,-55.758 10.336,0 0,55.758 z m -1.2,-54.557 -7.936,0 0,53.357 7.936,0 0,-53.357 z"
       style="fill:#231f20;fill-opacity:1;fill-rule:nonzero;stroke:none"
       id="path3490"
       inkscape:connector-curvature="0" /><path
       d="m 425.439,750.116 9.137,0 0,-54.558 -9.137,0 0,54.558 z"
       style="fill:#100f0d;fill-opacity:1;fill-rule:nonzero;stroke:none"
       id="path3492"
       inkscape:connector-curvature="0" /><path
       d="m 435.176,750.716 -10.336,0 0,-55.758 10.336,0 0,55.758 z m -1.2,-54.557 -7.936,0 0,53.357 7.936,0 0,-53.357 z"
       style="fill:#231f20;fill-opacity:1;fill-rule:nonzero;stroke:none"
       id="path3494"
       inkscape:connector-curvature="0" /><g
       id="g3496"
       transform="translate(446.9297,669.4219)"><path
         d="M 0,0 C -2.752,2.03 2.327,4.006 0,0"
         style="fill:#ffffff;fill-opacity:1;fill-rule:evenodd;stroke:none"
         id="path3498"
         inkscape:connector-curvature="0" /></g><g
       id="g3500"
       transform="translate(448.6035,669.4219)"><path
         d="M 0,0 C 2.811,2.026 -2.024,-2.812 0,0"
         style="fill:#ffffff;fill-opacity:1;fill-rule:evenodd;stroke:none"
         id="path3502"
         inkscape:connector-curvature="0" /></g><g
       id="g3504"
       transform="translate(428.4287,654.1006)"><path
         d="M 0,0 C 1.049,-0.297 5.431,-0.091 8.442,-0.604 9.333,-2.715 5.299,-4.635 5.927,-1.441 4.615,-4.515 1.832,-1.26 0.899,-3.956 c -2.436,0.131 -2.022,3.714 -5.326,3.484 5.5,2.455 8.711,7.465 14.544,3.221 C 6.788,3.376 1.673,3.054 0,0"
         style="fill:#231f20;fill-opacity:1;fill-rule:evenodd;stroke:none"
         id="path3506"
         inkscape:connector-curvature="0" /></g><g
       id="g3512"
       transform="translate(443.5771,652.6592)"><path
         d="m 0,0 c 0.814,-0.023 0.648,-1.026 0.837,-1.676 -0.276,-1.96 -1.009,-3.463 -1.679,-5.029 0.489,-1.707 -0.569,-6.606 -0.837,-2.517 l 0,3.354 0,3.353 C -0.896,-1.9 -0.41,-0.991 0,0"
         style="fill:#231f20;fill-opacity:1;fill-rule:evenodd;stroke:none"
         id="path3514"
         inkscape:connector-curvature="0" /></g><g
       id="g3516"
       transform="translate(426.1221,648.9443)"><path
         d="M 0,0 C 0.229,2.985 0.375,-2.068 0.106,-3.095 -0.622,-5.328 -0.094,-1.075 0,0"
         style="fill:#231f20;fill-opacity:1;fill-rule:evenodd;stroke:none"
         id="path3518"
         inkscape:connector-curvature="0" /></g><path
       style="fill:#231f20;fill-opacity:1;fill-rule:evenodd;stroke:none"
       d="M 367.33789 78.824219 C 362.99578 78.835469 358.55217 80.136328 354.52148 82.681641 C 350.37315 85.300391 345.46826 90.472734 343.47461 94.333984 C 340.82681 99.476484 340.37008 103.74164 340.80078 111.27539 C 341.09499 113.53927 342.61491 114.92189 342.48828 117.66797 C 342.49401 117.88523 342.48461 118.11661 342.44531 118.37891 C 342.78686 120.17037 343.00783 121.85838 343.19531 123.50391 C 344.00334 130.11176 344.16034 135.85718 347.12305 141.49609 C 347.30275 141.82206 347.4787 142.14764 347.67969 142.47461 C 347.76326 142.61719 347.83633 142.7598 347.92383 142.90234 C 346.27545 143.64758 344.81364 144.56261 343.2793 145.40234 C 341.37146 146.85664 339.34927 148.18231 335.95703 148.23828 C 335.03078 150.51703 328.79445 153.18891 331.9707 156.09766 C 332.8132 149.81141 338.79102 148.2875 344.19727 147.0625 C 342.20477 149.8125 340.59711 154.06203 341.16211 159.86328 C 341.22045 160.79813 341.81709 162.52694 342.62109 164.24609 C 343.50899 165.52592 344.45449 166.75055 345.26758 167.87109 C 344.34316 170.98389 344.70917 175.16051 347.62109 172.93945 C 347.62744 172.92972 347.63428 172.92396 347.64062 172.91406 C 343.38758 173.37982 347.19408 169.94868 345.72852 166.95508 C 342.83729 163.90758 340.99477 160.60594 342.43164 154.05469 C 342.43586 154.04746 342.43915 154.0385 342.44336 154.03125 C 342.44437 154.02191 342.4443 154.01326 342.44531 154.00391 C 342.45351 153.99585 342.46059 153.98661 342.46875 153.97852 C 344.12507 151.07086 344.45058 146.0151 348.63672 144.6543 C 348.67024 144.62735 348.70025 144.59666 348.73438 144.57031 C 348.73127 144.60394 348.73337 144.63259 348.73047 144.66602 C 350.78744 149.9433 354.53074 154.46514 357.93555 157.16406 C 360.16696 158.75366 360.41709 159.26944 365.82031 158.66602 C 362.95482 159.64187 361.20365 160.24555 360.04688 160.26367 C 360.0507 160.27939 360.03913 160.29206 360.04688 160.30859 C 358.60135 160.39638 356.22933 160.24768 356 161.72266 C 355.99576 161.91643 356.00938 162.12955 356.06445 162.38281 C 356.09078 162.61278 356.1085 162.81352 356.13281 163.03906 C 356.92278 167.35932 360.69699 171.24139 361.10352 174.39844 L 361.25 174.42383 C 362.00557 172.77264 366.5036 172.83461 368.2207 172.07031 C 368.36531 171.98968 368.51048 171.90945 368.63867 171.8125 C 371.17492 171.5825 372.76586 174.65914 373.47461 175.11914 C 374.03711 175.48289 375.45266 176.08422 376.09766 176.16797 C 377.19892 176.30813 378.26491 176.56101 379.29492 176.8457 C 380.2005 173.00634 383.16682 168.4838 385.33398 163.74609 C 388.00176 157.91734 387.29883 148.55586 393.29102 146.84961 C 393.49075 142.16211 393.49054 138.8675 396.53906 137.03125 C 396.77211 136.8382 397.5587 136.99996 398.5957 137.2793 C 399.29023 137.3648 400.00741 137.58862 400.74023 137.86914 C 403.51198 138.63315 406.96711 139.42374 409.39844 138.33984 C 404.15902 136.94484 391.79692 137.52 389.9668 131.875 C 395.89781 136.13625 399.77032 117.12453 395.33984 108.17578 C 393.81309 105.86203 392.3388 107.24359 392.41992 105.55859 C 392.65836 100.61984 391.71646 94.744531 388.15234 90.425781 C 383.57333 85.185781 378.48425 80.634141 371.62695 79.244141 C 370.22098 78.959453 368.78526 78.820469 367.33789 78.824219 z M 368.29688 80.011719 C 370.29119 80.055671 372.23992 80.302578 373.55664 80.861328 C 376.08039 87.415078 378.94617 93.756484 384.35742 97.427734 C 381.72242 104.00148 386.61633 109.96453 388.54883 115.23828 C 390.86258 115.10828 388.98945 110.78992 389.5957 108.95117 C 391.47445 109.08367 391.80141 107.66875 393.78516 107.90625 C 394.66266 109.12 395.16953 110.71383 394.83203 113.14258 C 393.81453 113.11383 394.01891 111.86188 393.78516 111.04688 C 387.65391 114.56937 394.87609 121.34305 391.68359 127.81055 C 392.91484 127.6393 393.25031 125.81313 393.41406 124.57812 C 396.71406 125.08188 393.80703 130.47437 392.73828 130.95312 C 389.45828 131.43313 389.38945 128.71484 389.5957 125.71484 C 386.70445 129.01234 391.0907 133.95148 389.5957 139.33398 C 391.01195 139.01023 390.46188 136.71008 390.64062 135.14258 C 396.97188 140.83883 386.83797 146.1575 386.44922 151.90625 L 381.21289 154.00391 C 384.39664 151.60266 384.69484 146.30914 387.49609 143.52539 C 387.17234 141.30914 383.86242 144.62727 384.35742 146.66602 C 383.12992 148.23977 381.32789 149.22875 381.21289 151.90625 C 375.55289 153.23375 371.49687 156.15711 366.54688 158.19336 C 372.24687 153.57461 354.74437 161.27141 356.23438 150.91016 C 357.75813 148.93766 366.06805 151.77875 367.5918 149.8125 C 365.21555 147.29625 357.3407 150.28477 356.06445 146.66602 C 357.5882 145.13977 359.84594 147.13422 362.52344 147.32422 C 366.07594 147.57297 370.93258 144.22359 372.83008 147.71484 C 372.76508 141.12484 360.25969 151.20539 359.21094 143.52539 C 359.78469 143.24039 359.82109 142.89227 361.74609 143.41602 C 362.88984 138.77727 364.97789 139.10711 371.43164 141.78711 C 371.56289 141.87211 371.96688 141.96875 371.54688 141.625 C 367.48438 138.31 368.53617 134.58133 368.63867 133.04883 C 366.32367 133.18008 369.09203 137.93023 368.48828 139.77148 C 363.68328 137.54648 361.29836 141.75742 358.34961 139.85742 C 356.74461 138.69617 358.55328 123.97766 357.11328 120.47266 C 352.06453 123.33266 352.39578 115.87563 346.26953 116.76562 C 345.65453 104.62563 346.09836 94.644141 350.75586 89.962891 C 351.03836 89.340391 353.50211 89.262422 353.97461 89.044922 C 357.92586 88.001172 358.30563 82.157031 360.64062 80.957031 C 361.51953 80.425 364.97302 79.938464 368.29688 80.011719 z M 394.9375 115.67383 C 398.10125 117.26008 394.3793 121.29836 395.24805 124.03711 C 393.51055 122.97586 393.69578 119.16828 392.73828 117.33203 C 393.75828 117.36078 393.55016 118.61344 393.78516 119.42969 C 395.01391 119.25719 394.77125 116.90758 394.9375 115.67383 z M 348.2793 121.78516 C 349.78838 121.72972 351.93867 122.81563 352.70898 122.71484 C 352.01648 123.19484 347.90516 122.84539 346.69141 123.61914 C 346.69984 122.26258 347.37385 121.81842 348.2793 121.78516 z M 352.92578 125.71484 C 354.11578 125.91359 353.50953 126.76547 352.92578 126.76172 C 356.28453 128.02672 355.45836 137.59711 353.97461 140.38086 C 349.87836 138.88336 347.99922 135.18062 346.63672 130.95312 C 348.98547 130.90562 353.01328 130.43 352.92578 129.90625 C 352.27078 129.25125 348.32469 130.23242 347.67969 128.85742 C 347.67844 125.18992 352.05703 129.46109 352.92578 125.71484 z M 386.44922 152.95508 C 387.23922 157.60883 383.11477 166.36672 380.16602 170.76172 C 376.70227 169.19422 382.34414 168.20359 381.21289 165.52734 C 382.33164 161.61234 378.61055 162.54023 379.12305 159.24023 C 382.35555 157.93898 384.73922 155.78258 386.44922 152.95508 z M 362.55078 161.27148 C 363.16436 161.27387 363.80297 161.30156 364.44922 161.33594 C 363.61797 165.41969 363.36594 166.7675 365.49219 169.71875 C 368.57344 168.82875 364.13469 167.08102 365.49219 164.47852 C 368.11094 162.16602 376.0218 160.87531 379.12305 162.38281 C 378.48055 166.63531 375.90148 168.94633 377.02148 174.95508 C 372.14312 173.52082 370.38272 170.87081 371.5293 165.53711 C 370.14729 170.00665 365.25598 170.96709 361.30859 172.85938 C 360.04734 169.58313 357.42227 167.66281 358.16602 162.38281 C 359.0932 161.47906 360.71006 161.26434 362.55078 161.27148 z M 371.5293 165.53711 C 371.63262 165.20296 371.72103 164.85379 371.7832 164.47852 C 371.68579 164.84308 371.60283 165.19503 371.5293 165.53711 z "
       transform="matrix(0.8,0,0,-0.8,136.09108,750.7163)"
       id="path3522" /><g
       id="g3528"
       transform="translate(430.165,661.0391)"><path
         d="m 0,0 c -5.027,-0.643 -6.692,-7.144 -12.574,-4.189 1.013,0.978 2.785,-0.279 3.301,-0.523 C -5.609,-3.905 -4.681,0.211 0,0"
         style="fill:#231f20;fill-opacity:1;fill-rule:evenodd;stroke:none"
         id="path3530"
         inkscape:connector-curvature="0" /></g><g
       id="g3536"
       transform="translate(430.1182,648.4678)"><path
         d="M 0,0 C -0.8,0.876 4.279,0.06 6.496,1.18 5.316,0.171 1.16,-0.639 0,0"
         style="fill:#231f20;fill-opacity:1;fill-rule:evenodd;stroke:none"
         id="path3538"
         inkscape:connector-curvature="0" /></g><path
       style="fill:#231f20;fill-opacity:1;fill-rule:evenodd;stroke:none"
       d="M 403.25391 143.9668 C 403.59086 146.92861 403.05792 149.13933 402.04297 150.92578 C 400.67533 153.8655 398.26844 155.64886 395.9082 157.99609 C 396.09206 160.72629 394.00015 162.07162 393.625 164.57617 C 393.60204 165.14844 393.62765 165.76776 393.77539 166.50977 C 394.56435 162.76696 397.04835 160.06441 399.37305 157.35938 C 401.92302 153.69934 404.1791 149.87296 403.30859 144.13477 C 403.29085 144.07894 403.27246 144.02304 403.25391 143.9668 z "
       transform="matrix(0.8,0,0,-0.8,136.09108,750.7163)"
       id="path3542" /><g
       id="g3556"
       transform="translate(427.4199,641.6357)"><path
         d="M 0,0 C -0.307,0.113 0.139,0.247 0.483,0.463 0.823,0.682 0.655,0.178 1.484,-0.066 L 1.277,-0.061 0,0 Z"
         style="fill:#231f20;fill-opacity:1;fill-rule:evenodd;stroke:none"
         id="path3558"
         inkscape:connector-curvature="0" /></g></g><g
     inkscape:groupmode="layer"
     id="layer1"
     inkscape:label="logo 1"
     style="display:inline" /></svg>